<svg version="1.1" id="Layer_1" xmlns="http://www.w3.org/2000/svg" xmlns:xlink="http://www.w3.org/1999/xlink"
     viewBox="113 160 399 315" width="100%" height="100%" xml:space="preserve">

  <!-- K shape (left character) -->
  <path fill="#4F5AF7" d="
    M174.687943,474.896362
      C178.460419,469.614594 182.241760,464.339142 186.004044,459.050110
      C218.725830,413.050079 251.382889,367.003662 284.273743,321.124817
      C287.064819,317.231598 286.088928,314.992065 283.714752,311.734711
      C247.913727,262.616394 212.195633,213.437531 176.559845,164.199219
      C174.761200,161.714035 172.900818,160.918686 169.963318,160.961700
      C159.470917,161.115387 148.974731,161.008026 138.479980,161.003479
      C130.560333,161.000046 122.640671,161.002808 113.546669,161.002808
      C151.788788,213.529221 189.372894,265.151825 227.022797,316.864807
      C226.168915,318.181366 225.495529,319.309296 224.736786,320.376526
      C197.429001,358.786438 170.112946,397.190491 142.798767,435.595856
      C133.733231,448.342468 124.669647,461.090515 115.110374,474.491547
      C135.510651,475.189911 154.761887,475.106201 174.687943,474.896362
    Z"/>

  <!-- R shape (right character) -->
  <path fill="#4F5AF7" d="
    M511.923401,473.298401
      C489.715942,442.490662 467.514038,411.678894 445.297852,380.877472
      C438.117004,370.921692 430.898651,360.993011 423.428009,350.679932
      C425.562103,349.928467 427.079987,349.384552 428.604095,348.858734
      C480.711090,330.881500 507.176544,273.921082 486.921356,223.342102
      C472.350067,186.956268 434.938873,161.225510 395.648041,161.086655
      C341.492920,160.895248 287.336639,161.031876 233.180878,161.028000
      C231.596024,161.027985 230.011169,161.027985 227.567398,161.027985
      C229.129639,163.399353 230.132706,165.066055 231.274094,166.631912
      C241.182571,180.225204 251.204071,193.737503 260.968018,207.433548
      C262.941895,210.202362 264.978638,211.192551 268.332672,211.183472
      C309.657440,211.071487 350.982819,211.018402 392.307495,211.141983
      C418.842499,211.221329 440.296906,232.309128 440.302124,257.964630
      C440.307495,284.398773 419.344604,305.229706 392.492401,305.342529
      C371.663696,305.430054 350.834381,305.372284 330.005341,305.379028
      C328.422241,305.379517 326.839142,305.379089 324.512665,305.379089
      C325.802277,307.340088 326.547302,308.586243 327.400208,309.753601
      C363.563477,359.248169 399.719391,408.748108 435.930939,458.207367
      C440.121338,463.930878 444.627075,469.423523 449.904358,475.245789
      C469.471771,475.257812 489.039307,475.292389 508.606445,475.225586
      C509.772644,475.221619 510.936066,474.405792 511.923401,473.298401
    Z"/>

  <!-- Cursor / underscore block (cleaned up, single unified rect) -->
  <rect fill="#4F5AF7" x="242" y="433" width="54" height="42" rx="2" ry="2"/>

</svg>